# xmcd
#
# Track frame offsets:
#	150
#	13949
#	28648
#	49872
#	67046
#	85195
#	106045
#	122845
#	134094
#	149393
#	161843
#	183143
#	196717
#
# Disc length: 2804 seconds
#
# Revision: 1
# Processed by: cddbd v1.5.2PL0 Copyright (c) Steve Scherf et al.
# Submitted via: audiograbber 1.83.01
#
DISCID=b50af20d
DTITLE=Chris Bennon and Ring-of-Fire - Winnetou und Old Shatterhand in Elspe
DYEAR=2014
DGENRE=Country
TTITLE0=Winnetou und Old Shatterhand in Elspe (VOC.)
TTITLE1=Der Ölprinz (INSTR.)
TTITLE2=Freiheit ist hier grenzenlos (VOC.)
TTITLE3=Sieben Schlittenhunde (VOC.)
TTITLE4=Steaks vom Grill und Western-Musik (VOC.)
TTITLE5=Mondschein, was hast Du gebracht (VOC.)
TTITLE6=Sweethart-Baby, ich will weg von hier (VOC.)
TTITLE7=Hallo, sag ja zu mir (VOC.)
TTITLE8=Sieben Schlittenhunde (INSTR.)
TTITLE9=Der ideale Typ heißt Titus (INSTR.)
TTITLE10=Freiheit ist hier grenzenlos (INSTR.)
TTITLE11=Winnetou und Old Shatterhand in Elspe (INSTR.)
TTITLE12=Winnetou und Old Shatterhand in Elspe (VOC.)
EXTD=Sonderedition für Meinolf Pape\nMit freundlicher Genehmigung des Karl-May-
EXTD=Verlags, Bamberg
EXTT0=
EXTT1=
EXTT2=
EXTT3=
EXTT4=
EXTT5=
EXTT6=
EXTT7=
EXTT8=
EXTT9=
EXTT10=
EXTT11=
EXTT12=
PLAYORDER=
